# xmcd
#
# Track frame offsets:
#  182
#  10207
#  20850
#  32337
#  45662
#  57247
#  67430
#  76950
#  90222
#  100407
#  112937
#  123337
#  135465
#  145332
#
# Disc length: 2110 seconds
#
# Revision: 0
# Processed by: cddbd v1.5.1PL2 Copyright (c) Steve Scherf et al.
# Submitted via: Collectorz.com_Music_Collector 6.11
#
DISCID=b7083c0e
DTITLE=Junior Parker - The Mercury Recordings
DYEAR=1996
DGENRE=Blues
TTITLE0=Wish Me Well
TTITLE1=Cracked Up Over You
TTITLE2=You Ain't Got No Heart
TTITLE3=Baby, Please
TTITLE4=Just Like A Fish
TTITLE5=Come Back, Baby
TTITLE6=(Ooh Wee Baby) That's The Way You Make Me Feel
TTITLE7=Sometimes I Wonder
TTITLE8=Hey Lawdy Mama
TTITLE9=Country Girl
TTITLE10=You Can Make It If You Try
TTITLE11=If I Had Your Love
TTITLE12=I Can't Put My Finger On It
TTITLE13=Hurtin' Inside
EXTD=
EXTT0=
EXTT1=
EXTT2=
EXTT3=
EXTT4=
EXTT5=
EXTT6=
EXTT7=
EXTT8=
EXTT9=
EXTT10=
EXTT11=
EXTT12=
EXTT13=
PLAYORDER=
